<svg width="28" height="34" viewBox="0 0 28 34" fill="none" xmlns="http://www.w3.org/2000/svg">
<path d="M5.66602 8.66672V5.33339C5.66604 4.36818 5.94543 3.42362 6.47046 2.6137C6.99549 1.80379 7.74372 1.16315 8.62483 0.769121C9.50594 0.375089 10.4823 0.244506 11.436 0.393135C12.3896 0.541764 13.2799 0.963251 13.9993 1.60672C14.7188 0.963251 15.6091 0.541764 16.5627 0.393135C17.5164 0.244506 18.4928 0.375089 19.3739 0.769121C20.255 1.16315 21.0032 1.80379 21.5282 2.6137C22.0533 3.42362 22.3327 4.36818 22.3327 5.33339V8.66672H24.8327C25.4957 8.66672 26.1316 8.93011 26.6004 9.39895C27.0693 9.86779 27.3327 10.5037 27.3327 11.1667V27.8417C27.3327 29.3866 26.719 30.8682 25.6266 31.9606C24.5342 33.053 23.0526 33.6667 21.5077 33.6667H7.33268C5.56457 33.6667 3.86888 32.9643 2.61864 31.7141C1.36839 30.4639 0.666016 28.7682 0.666016 27.0001V11.1667C0.666016 10.5037 0.929407 9.86779 1.39825 9.39895C1.86709 8.93011 2.50297 8.66672 3.16602 8.66672H5.66602ZM16.7244 31.1667C16.0445 30.1914 15.6808 29.0306 15.6827 27.8417V11.1667H3.16602V27.0001C3.16602 27.5472 3.27379 28.089 3.48318 28.5946C3.69258 29.1001 3.99949 29.5594 4.3864 29.9463C4.77331 30.3332 5.23265 30.6402 5.73817 30.8496C6.24369 31.0589 6.78551 31.1667 7.33268 31.1667H16.7244ZM13.166 8.66672V5.33339C13.166 4.67035 12.9026 4.03446 12.4338 3.56562C11.9649 3.09678 11.3291 2.83339 10.666 2.83339C10.003 2.83339 9.36709 3.09678 8.89825 3.56562C8.42941 4.03446 8.16602 4.67035 8.16602 5.33339V8.66672H13.166ZM15.666 8.66672H19.8327V5.33339C19.8327 4.81878 19.674 4.31669 19.3781 3.89566C19.0822 3.47463 18.6636 3.15517 18.1794 2.98089C17.6952 2.8066 17.169 2.78599 16.6726 2.92186C16.1763 3.05773 15.7339 3.34346 15.406 3.74005C15.5743 4.24005 15.666 4.77672 15.666 5.33339V8.66672ZM18.1827 27.8417C18.1827 28.7236 18.533 29.5693 19.1566 30.1929C19.7801 30.8164 20.6258 31.1667 21.5077 31.1667C22.3895 31.1667 23.2353 30.8164 23.8588 30.1929C24.4824 29.5693 24.8327 28.7236 24.8327 27.8417V11.1667H18.1827V27.8417Z" fill="white"/>
</svg>
