<svg width="40" height="40" viewBox="0 0 40 40" fill="none" xmlns="http://www.w3.org/2000/svg">
<path d="M19.9993 37.2728C29.5388 37.2728 37.272 29.5395 37.272 20C37.272 10.4606 29.5388 2.72729 19.9993 2.72729C10.4598 2.72729 2.72656 10.4606 2.72656 20C2.72656 29.5395 10.4598 37.2728 19.9993 37.2728Z" stroke="#FEFAF1" stroke-width="2" stroke-linecap="round" stroke-linejoin="round"/>
<path d="M25.0904 14.547C24.761 13.9758 24.2825 13.505 23.706 13.1848C23.1295 12.8646 22.4768 12.7072 21.8176 12.7294H18.1813C17.2169 12.7294 16.2919 13.1124 15.61 13.7941C14.928 14.4759 14.5449 15.4005 14.5449 16.3647C14.5449 17.3288 14.928 18.2535 15.61 18.9353C16.2919 19.617 17.2169 20 18.1813 20H21.8176C22.7821 20 23.707 20.383 24.3889 21.0648C25.0709 21.7465 25.454 22.6712 25.454 23.6354C25.454 24.5995 25.0709 25.5242 24.3889 26.2059C23.707 26.8877 22.7821 27.2707 21.8176 27.2707H18.1813C17.5222 27.2929 16.8694 27.1354 16.293 26.8153C15.7165 26.4951 15.2379 26.0242 14.9086 25.453" stroke="#FEFAF1" stroke-width="2.75" stroke-linecap="round" stroke-linejoin="round"/>
<path d="M20 8.18188V12.1213M20 27.8789V31.8182" stroke="#FEFAF1" stroke-width="2.75" stroke-linecap="round" stroke-linejoin="round"/>
</svg>
